# xmcd
# 
# Track frame offsets:
#     150
#     14663
#     28786
#     46353
#     60911
#     75337
#     90996
#     108101
#     123818
#     140479
#     155840
#     169072
#     184087
# 
# Disc length: 2682
# 
# Revision: 0
# Processed by: cddbd v1.5.2PL0 Copyright (c) Steve Scherf et al.
# Submitted via: fre:ac v1.0.17
# 
DISCID=9a0a780d
DTITLE=Essra Mohawk - You're Not Alone
DYEAR=2003
DGENRE=Blues
TTITLE0=You're Not Alone
TTITLE1=Don't Cry When It Rains
TTITLE2=We Couldn't Say Goodbye
TTITLE3=Love Is Just A Dream
TTITLE4=One Last Kiss
TTITLE5=Love Hates Hiding
TTITLE6=World Of Peace
TTITLE7=You're My Hero
TTITLE8=Wings Of Grace
TTITLE9=Bizarro World
TTITLE10=Dream Repair
TTITLE11=The Moment
TTITLE12=When You're Happy
EXTD=
EXTT0=
EXTT1=
EXTT2=
EXTT3=
EXTT4=
EXTT5=
EXTT6=
EXTT7=
EXTT8=
EXTT9=
EXTT10=
EXTT11=
EXTT12=
PLAYORDER=
